<svg width="32" height="32" viewBox="0 0 32 32" fill="none" xmlns="http://www.w3.org/2000/svg">
<rect width="32" height="32" fill="white"/>
<path d="M13.4849 16.9973V8.01467C13.4849 6.90225 12.5877 6 11.4816 6H11.3609C11.3321 6 11.305 6.00181 11.2762 6.00362C10.8763 6.03805 10.5484 6.34061 10.4421 6.73014L9.15942 11.4425C9.05313 11.832 8.72345 12.1346 8.32351 12.1672C8.29469 12.169 8.26766 12.1708 8.23884 12.1708C7.80827 12.169 7.43896 11.8592 7.32546 11.4407L6.04278 6.73195C5.93649 6.34242 5.60861 6.03986 5.20867 6.00544C5.18165 6.00362 5.15282 6.00181 5.124 6.00181H5.0033C3.89716 6.00181 3 6.90406 3 8.01648V16.9991H5.62122V13.4083C5.62122 12.4353 6.84986 12.0168 7.43716 12.7904C7.8425 13.3231 8.64058 13.3231 9.04592 12.7904C9.63322 12.0168 10.8637 12.4335 10.8637 13.4083V16.9991H13.4849V16.9973Z" fill="#A42D2A"/>
<path d="M24.7466 25.9991V17.0165C24.7466 15.9041 23.8494 15.0018 22.7433 15.0018H22.6226C22.5938 15.0018 22.5668 15.0036 22.5379 15.0054C22.138 15.038 21.8101 15.3424 21.7038 15.7319L20.4211 20.4443C20.3148 20.8338 19.9852 21.1364 19.5852 21.169C19.5564 21.1708 19.5294 21.1726 19.5006 21.1726C19.07 21.1708 18.7007 20.861 18.5872 20.4425L17.3045 15.7301C17.1982 15.3406 16.8703 15.038 16.4704 15.0036C16.4434 15.0018 16.4145 15 16.3857 15H16.265C15.1589 15 14.2617 15.9023 14.2617 17.0147V25.9973H16.8829V22.4082C16.8829 21.4353 18.1116 21.0168 18.6989 21.7904C19.1042 22.3231 19.9023 22.3231 20.3076 21.7904C20.8949 21.0168 22.1254 21.4335 22.1254 22.4082V25.9991H24.7466Z" fill="#A42D2A"/>
<path d="M3.00195 26.0004H5.62317V25.6561C5.62317 25.2068 5.98528 24.8445 6.43026 24.8445H9.33612C9.7829 24.8445 10.1432 24.4803 10.1432 24.0328V23.0925C10.1432 22.6432 9.7811 22.2808 9.33612 22.2808H4.39273C3.94595 22.2808 3.58565 21.9167 3.58565 21.4692C3.58565 21.0199 3.94775 20.6575 4.39273 20.6575H12.678C13.1247 20.6575 13.485 20.2934 13.485 19.8459V18.9074C13.485 18.4581 13.1229 18.0957 12.678 18.0957H3.80904C3.36226 18.0957 3.00195 18.4599 3.00195 18.9074V26.0004Z" fill="#A42D2A"/>
<path d="M27.0413 25.9792C27.8225 25.9792 28.4557 25.3459 28.4557 24.5648C28.4557 23.7836 27.8225 23.1504 27.0413 23.1504C26.2602 23.1504 25.627 23.7836 25.627 24.5648C25.627 25.3459 26.2602 25.9792 27.0413 25.9792Z" fill="#A42D2A"/>
</svg>
